<svg width="1071" height="381" viewBox="0 0 1071 381" fill="none" xmlns="http://www.w3.org/2000/svg">
<path d="M370 190.5C370 295.71 227.738 381 146.712 381C65.6851 381 0 295.71 0 190.5C0 85.2898 65.6851 0 146.712 0C227.738 0 370 85.2898 370 190.5Z" fill="#1D33F8"/>
<path d="M292.957 155.124C292.349 148.994 289.74 144.232 285.129 140.837C280.519 137.443 274.262 135.746 266.359 135.746C260.988 135.746 256.454 136.506 252.756 138.026C249.057 139.495 246.22 141.547 244.244 144.181C242.319 146.816 241.357 149.805 241.357 153.148C241.255 155.935 241.838 158.367 243.104 160.444C244.422 162.521 246.22 164.32 248.5 165.839C250.78 167.309 253.414 168.601 256.403 169.715C259.393 170.779 262.584 171.691 265.979 172.451L279.962 175.795C286.75 177.315 292.982 179.341 298.656 181.874C304.33 184.407 309.245 187.523 313.399 191.222C317.554 194.92 320.771 199.277 323.05 204.293C325.381 209.308 326.572 215.058 326.622 221.543C326.572 231.068 324.14 239.326 319.327 246.317C314.564 253.258 307.674 258.654 298.656 262.504C289.689 266.304 278.872 268.204 266.207 268.204C253.642 268.204 242.699 266.279 233.377 262.428C224.106 258.578 216.861 252.878 211.643 245.33C206.475 237.73 203.765 228.332 203.511 217.136H235.353C235.708 222.354 237.202 226.711 239.837 230.207C242.522 233.652 246.094 236.261 250.552 238.034C255.061 239.757 260.152 240.618 265.827 240.618C271.4 240.618 276.238 239.807 280.342 238.186C284.496 236.565 287.713 234.31 289.993 231.423C292.273 228.535 293.413 225.216 293.413 221.467C293.413 217.972 292.374 215.033 290.297 212.652C288.27 210.271 285.281 208.244 281.33 206.572C277.429 204.901 272.641 203.381 266.967 202.013L250.02 197.757C236.898 194.565 226.538 189.575 218.938 182.786C211.339 175.997 207.564 166.853 207.615 155.352C207.564 145.929 210.072 137.696 215.138 130.654C220.255 123.612 227.272 118.115 236.189 114.163C245.106 110.212 255.238 108.236 266.587 108.236C278.138 108.236 288.22 110.212 296.832 114.163C305.496 118.115 312.234 123.612 317.047 130.654C321.86 137.696 324.342 145.853 324.494 155.124H292.957ZM430.962 268.204C423.515 268.204 416.878 266.912 411.052 264.328C405.226 261.694 400.615 257.818 397.221 252.701C393.877 247.533 392.205 241.099 392.205 233.398C392.205 226.914 393.396 221.467 395.777 217.06C398.158 212.652 401.401 209.106 405.504 206.42C409.608 203.735 414.269 201.709 419.487 200.341C424.756 198.973 430.278 198.01 436.054 197.453C442.843 196.744 448.314 196.085 452.469 195.477C456.623 194.819 459.638 193.856 461.512 192.589C463.387 191.323 464.324 189.448 464.324 186.966V186.51C464.324 181.697 462.804 177.973 459.764 175.339C456.775 172.704 452.519 171.387 446.997 171.387C441.171 171.387 436.535 172.679 433.09 175.263C429.645 177.796 427.365 180.988 426.251 184.838L396.309 182.406C397.829 175.313 400.818 169.183 405.276 164.016C409.735 158.797 415.485 154.795 422.527 152.009C429.62 149.171 437.827 147.753 447.149 147.753C453.634 147.753 459.84 148.513 465.768 150.033C471.746 151.553 477.04 153.908 481.651 157.1C486.312 160.292 489.985 164.396 492.67 169.411C495.355 174.376 496.697 180.329 496.697 187.27V266H465.996V249.813H465.084C463.209 253.461 460.701 256.678 457.56 259.464C454.419 262.2 450.645 264.353 446.237 265.924C441.83 267.444 436.738 268.204 430.962 268.204ZM440.234 245.862C444.996 245.862 449.201 244.924 452.849 243.05C456.496 241.125 459.359 238.541 461.436 235.298C463.513 232.056 464.552 228.383 464.552 224.279V211.892C463.539 212.551 462.145 213.159 460.372 213.716C458.65 214.223 456.699 214.704 454.521 215.16C452.342 215.565 450.164 215.945 447.985 216.3C445.807 216.604 443.831 216.882 442.058 217.136C438.258 217.693 434.939 218.58 432.102 219.795C429.265 221.011 427.061 222.658 425.491 224.735C423.92 226.762 423.135 229.295 423.135 232.335C423.135 236.742 424.731 240.111 427.923 242.442C431.165 244.722 435.269 245.862 440.234 245.862ZM521.814 266V149.273H553.199V169.639H554.415C556.543 162.394 560.115 156.923 565.13 153.224C570.146 149.475 575.922 147.601 582.457 147.601C584.078 147.601 585.826 147.702 587.701 147.905C589.575 148.107 591.222 148.386 592.64 148.741V177.467C591.12 177.011 589.018 176.605 586.333 176.251C583.648 175.896 581.19 175.719 578.961 175.719C574.199 175.719 569.943 176.757 566.194 178.835C562.496 180.861 559.557 183.698 557.379 187.346C555.251 190.994 554.187 195.199 554.187 199.961V266H521.814ZM677.317 149.273V173.591H607.022V149.273H677.317ZM622.981 121.307H655.355V230.131C655.355 233.12 655.811 235.45 656.722 237.122C657.634 238.743 658.901 239.883 660.522 240.542C662.194 241.201 664.119 241.53 666.298 241.53C667.818 241.53 669.338 241.403 670.857 241.15C672.377 240.846 673.543 240.618 674.353 240.466L679.445 264.556C677.824 265.063 675.544 265.645 672.605 266.304C669.667 267.013 666.095 267.444 661.89 267.596C654.088 267.9 647.249 266.861 641.372 264.48C635.545 262.099 631.011 258.401 627.769 253.385C624.526 248.369 622.93 242.036 622.981 234.386V121.307ZM733.287 198.517V266H700.913V110.364H732.375V169.867H733.743C736.377 162.977 740.633 157.581 746.51 153.68C752.387 149.729 759.758 147.753 768.624 147.753C776.73 147.753 783.798 149.526 789.827 153.072C795.906 156.568 800.618 161.609 803.961 168.195C807.356 174.731 809.028 182.558 808.977 191.678V266H776.604V197.453C776.654 190.259 774.83 184.661 771.132 180.658C767.484 176.656 762.367 174.655 755.781 174.655C751.373 174.655 747.472 175.592 744.078 177.467C740.734 179.341 738.1 182.077 736.175 185.674C734.3 189.22 733.337 193.501 733.287 198.517ZM867.74 268.204C860.292 268.204 853.655 266.912 847.829 264.328C842.003 261.694 837.393 257.818 833.998 252.701C830.654 247.533 828.983 241.099 828.983 233.398C828.983 226.914 830.173 221.467 832.554 217.06C834.935 212.652 838.178 209.106 842.282 206.42C846.385 203.735 851.046 201.709 856.265 200.341C861.533 198.973 867.056 198.01 872.831 197.453C879.62 196.744 885.092 196.085 889.246 195.477C893.4 194.819 896.415 193.856 898.289 192.589C900.164 191.323 901.101 189.448 901.101 186.966V186.51C901.101 181.697 899.581 177.973 896.542 175.339C893.552 172.704 889.297 171.387 883.775 171.387C877.948 171.387 873.313 172.679 869.868 175.263C866.422 177.796 864.143 180.988 863.028 184.838L833.086 182.406C834.606 175.313 837.595 169.183 842.054 164.016C846.512 158.797 852.262 154.795 859.304 152.009C866.397 149.171 874.605 147.753 883.926 147.753C890.411 147.753 896.618 148.513 902.545 150.033C908.523 151.553 913.818 153.908 918.428 157.1C923.089 160.292 926.762 164.396 929.447 169.411C932.132 174.376 933.475 180.329 933.475 187.27V266H902.773V249.813H901.861C899.987 253.461 897.479 256.678 894.338 259.464C891.197 262.2 887.422 264.353 883.015 265.924C878.607 267.444 873.515 268.204 867.74 268.204ZM877.011 245.862C881.773 245.862 885.978 244.924 889.626 243.05C893.274 241.125 896.136 238.541 898.213 235.298C900.291 232.056 901.329 228.383 901.329 224.279V211.892C900.316 212.551 898.923 213.159 897.15 213.716C895.427 214.223 893.476 214.704 891.298 215.16C889.119 215.565 886.941 215.945 884.762 216.3C882.584 216.604 880.608 216.882 878.835 217.136C875.035 217.693 871.717 218.58 868.88 219.795C866.042 221.011 863.839 222.658 862.268 224.735C860.698 226.762 859.912 229.295 859.912 232.335C859.912 236.742 861.508 240.111 864.7 242.442C867.942 244.722 872.046 245.862 877.011 245.862ZM987.925 232.411L988.001 193.577H992.712L1030.1 149.273H1067.26L1017.03 207.94H1009.36L987.925 232.411ZM958.591 266V110.364H990.964V266H958.591ZM1031.55 266L997.196 215.16L1018.78 192.286L1069.47 266H1031.55Z" fill="white"/>
</svg>
